<?xml version="1.0" encoding="UTF-8"?>
<!DOCTYPE svg PUBLIC "-//W3C//DTD SVG 1.1//EN" "http://www.w3.org/Graphics/SVG/1.1/DTD/svg11.dtd">
<!-- Creator: CorelDRAW 2019 (64-Bit) -->
<svg xmlns="http://www.w3.org/2000/svg" xml:space="preserve" width="3.33333in" height="3.33333in" version="1.1" style="shape-rendering:geometricPrecision; text-rendering:geometricPrecision; image-rendering:optimizeQuality; fill-rule:evenodd; clip-rule:evenodd"
viewBox="0 0 3333.33 3333.33"
 xmlns:xlink="http://www.w3.org/1999/xlink"
 xmlns:xodm="http://www.corel.com/coreldraw/odm/2003">
 <defs>
  <style type="text/css">
   <![CDATA[
    .fil0 {fill:#1C2120}
   ]]>
  </style>
 </defs>
 <g id="Capa_x0020_1">
  <metadata id="CorelCorpID_0Corel-Layer"/>
  <path class="fil0" d="M246.31 3016.04l-246.31 3.57 0.23 220.8 471.36 7.29 0.31 -1689.45 500.03 -389.08 -1.13 2077.02 946.3 -0.72 -0.51 -2711.74 357 274.46 0.54 2438.1 1059.2 -3.36 -0.67 -214.43 -249.39 -8.73 -4.26 -1384.73 -579.54 -445.52 -0.23 -488.71 -790.41 -615.17 0 755.04 -740.87 -569.48 3.06 607.93 -723.37 556.09 -1.33 1580.84zm950.43 -2310.86l-0.54 2311.27 512.63 3.16 0 -1928.88 -512.09 -385.54zm1302.45 754.71l0.48 1555.84 355.44 0 0 -1293.88 -355.92 -261.96z"/>
 </g>
</svg>
